<?xml version="1.0" encoding="UTF-8" standalone="no"?>
<!-- Created with Inkscape (http://www.inkscape.org/) -->

<svg
   xmlns:dc="http://purl.org/dc/elements/1.1/"
   xmlns:cc="http://creativecommons.org/ns#"
   xmlns:rdf="http://www.w3.org/1999/02/22-rdf-syntax-ns#"
   xmlns:svg="http://www.w3.org/2000/svg"
   xmlns="http://www.w3.org/2000/svg"
   xmlns:sodipodi="http://sodipodi.sourceforge.net/DTD/sodipodi-0.dtd"
   xmlns:inkscape="http://www.inkscape.org/namespaces/inkscape"
   width="96"
   height="96"
   viewBox="0 0 25.399999 25.400001"
   version="1.1"
   id="svg8"
   inkscape:version="0.92.4 5da689c313, 2019-01-14"
   sodipodi:docname="add.svg">
  <defs
     id="defs2">
    <inkscape:path-effect
       effect="simplify"
       id="path-effect821"
       is_visible="true"
       steps="1"
       threshold="0.000408163"
       smooth_angles="360"
       helper_size="0"
       simplify_individual_paths="false"
       simplify_just_coalesce="false"
       simplifyindividualpaths="false"
       simplifyJustCoalesce="false" />
    <inkscape:path-effect
       effect="simplify"
       id="path-effect817"
       is_visible="true"
       steps="1"
       threshold="0.000408163"
       smooth_angles="360"
       helper_size="0"
       simplify_individual_paths="false"
       simplify_just_coalesce="false"
       simplifyindividualpaths="false"
       simplifyJustCoalesce="false" />
  </defs>
  <sodipodi:namedview
     id="base"
     pagecolor="#ffffff"
     bordercolor="#666666"
     borderopacity="1.0"
     inkscape:pageopacity="0.0"
     inkscape:pageshadow="2"
     inkscape:zoom="3.3958334"
     inkscape:cx="38.251218"
     inkscape:cy="52.793997"
     inkscape:document-units="px"
     inkscape:current-layer="layer1"
     showgrid="false"
     units="px"
     inkscape:window-width="1920"
     inkscape:window-height="1049"
     inkscape:window-x="0"
     inkscape:window-y="0"
     inkscape:window-maximized="1" />
  <metadata
     id="metadata5">
    <rdf:RDF>
      <cc:Work
         rdf:about="">
        <dc:format>image/svg+xml</dc:format>
        <dc:type
           rdf:resource="http://purl.org/dc/dcmitype/StillImage" />
        <dc:title></dc:title>
      </cc:Work>
    </rdf:RDF>
  </metadata>
  <g
     inkscape:label="Calque 1"
     inkscape:groupmode="layer"
     id="layer1"
     transform="translate(0,-271.59998)">
    <path
       style="opacity:1;fill:#4d74f3;fill-opacity:1;stroke:#000000;stroke-width:2.06900003;stroke-linecap:round;stroke-linejoin:round;stroke-miterlimit:4;stroke-dasharray:none;stroke-opacity:1"
       d="M 48 1.0351562 A 46.965374 46.965374 0 0 0 1.0351562 48 A 46.965374 46.965374 0 0 0 48 94.964844 A 46.965374 46.965374 0 0 0 94.964844 48 A 46.965374 46.965374 0 0 0 48 1.0351562 z M 48 11.220703 A 36.778399 36.778399 0 0 1 84.779297 48 A 36.778399 36.778399 0 0 1 48 84.779297 A 36.778399 36.778399 0 0 1 11.220703 48 A 36.778399 36.778399 0 0 1 48 11.220703 z "
       transform="matrix(0.26458333,0,0,0.26458333,0,271.59998)"
       id="path4640" />
    <path
       style="opacity:1;fill:#4d74f3;fill-opacity:1;stroke:#000000;stroke-width:2.00000003;stroke-linecap:round;stroke-linejoin:round;stroke-miterlimit:4;stroke-dasharray:none;stroke-opacity:1"
       d="M 41.589844 24.089844 L 41.589844 41.646484 L 24.146484 41.646484 L 24.146484 54.353516 L 41.589844 54.353516 L 41.589844 71.910156 L 54.410156 71.910156 L 54.410156 54.353516 L 71.853516 54.353516 L 71.853516 41.646484 L 54.410156 41.646484 L 54.410156 24.089844 L 41.589844 24.089844 z "
       transform="matrix(0.26458333,0,0,0.26458333,0,271.59998)"
       id="rect4684" />
  </g>
</svg>
