<?xml version="1.0" encoding="UTF-8" standalone="no"?>
<!-- Created with Inkscape (http://www.inkscape.org/) -->

<svg
   xmlns:dc="http://purl.org/dc/elements/1.1/"
   xmlns:cc="http://creativecommons.org/ns#"
   xmlns:rdf="http://www.w3.org/1999/02/22-rdf-syntax-ns#"
   xmlns:svg="http://www.w3.org/2000/svg"
   xmlns="http://www.w3.org/2000/svg"
   xmlns:sodipodi="http://sodipodi.sourceforge.net/DTD/sodipodi-0.dtd"
   xmlns:inkscape="http://www.inkscape.org/namespaces/inkscape"
   width="96"
   height="96"
   viewBox="0 0 25.399999 25.400001"
   version="1.1"
   id="svg8"
   inkscape:version="0.92.4 5da689c313, 2019-01-14"
   sodipodi:docname="dislike.svg">
  <defs
     id="defs2">
    <inkscape:path-effect
       effect="simplify"
       id="path-effect821"
       is_visible="true"
       steps="1"
       threshold="0.000408163"
       smooth_angles="360"
       helper_size="0"
       simplify_individual_paths="false"
       simplify_just_coalesce="false"
       simplifyindividualpaths="false"
       simplifyJustCoalesce="false" />
    <inkscape:path-effect
       effect="simplify"
       id="path-effect817"
       is_visible="true"
       steps="1"
       threshold="0.000408163"
       smooth_angles="360"
       helper_size="0"
       simplify_individual_paths="false"
       simplify_just_coalesce="false"
       simplifyindividualpaths="false"
       simplifyJustCoalesce="false" />
  </defs>
  <sodipodi:namedview
     id="base"
     pagecolor="#ffffff"
     bordercolor="#666666"
     borderopacity="1.0"
     inkscape:pageopacity="0.0"
     inkscape:pageshadow="2"
     inkscape:zoom="4.8024336"
     inkscape:cx="46.61954"
     inkscape:cy="34.28352"
     inkscape:document-units="px"
     inkscape:current-layer="layer1"
     showgrid="false"
     units="px"
     inkscape:window-width="1920"
     inkscape:window-height="1049"
     inkscape:window-x="0"
     inkscape:window-y="0"
     inkscape:window-maximized="1" />
  <metadata
     id="metadata5">
    <rdf:RDF>
      <cc:Work
         rdf:about="">
        <dc:format>image/svg+xml</dc:format>
        <dc:type
           rdf:resource="http://purl.org/dc/dcmitype/StillImage" />
        <dc:title></dc:title>
      </cc:Work>
    </rdf:RDF>
  </metadata>
  <g
     inkscape:label="Calque 1"
     inkscape:groupmode="layer"
     id="layer1"
     transform="translate(0,-271.59998)">
    <path
       style="opacity:1;fill:#f34d4d;fill-opacity:1;stroke:#000000;stroke-width:2.00000024;stroke-linecap:round;stroke-linejoin:round;stroke-miterlimit:4;stroke-dasharray:none;stroke-opacity:1"
       d="M 28.175781 6.1386719 A 26.627461 26.627461 0 0 0 9.7363281 13.933594 L 9.7363281 13.9375 A 26.627461 26.627461 0 0 0 9.7363281 51.595703 A 26.627461 26.627461 0 0 0 10.365234 52.181641 L 10.34375 52.203125 L 40.630859 82.490234 L 55.152344 57.341797 L 28.894531 42.179688 L 45.953125 12.632812 A 26.627461 26.627461 0 0 0 28.175781 6.1386719 z M 67.046875 6.1386719 A 26.627461 26.627461 0 0 0 58.982422 7.5234375 L 40.931641 38.791016 L 59.628906 49.585938 L 67.105469 53.902344 L 62.628906 61.65625 L 46.951172 88.810547 L 48 89.859375 L 85.65625 52.203125 L 85.625 52.167969 A 26.627461 26.627461 0 0 0 86.263672 51.591797 A 26.627461 26.627461 0 0 0 86.263672 13.935547 A 26.627461 26.627461 0 0 0 67.046875 6.1386719 z "
       transform="matrix(0.26458333,0,0,0.26458333,0,271.59998)"
       id="rect5428" />
  </g>
</svg>
