<?xml version="1.0" encoding="UTF-8" standalone="no"?>
<!-- Created with Inkscape (http://www.inkscape.org/) -->

<svg
   xmlns:dc="http://purl.org/dc/elements/1.1/"
   xmlns:cc="http://creativecommons.org/ns#"
   xmlns:rdf="http://www.w3.org/1999/02/22-rdf-syntax-ns#"
   xmlns:svg="http://www.w3.org/2000/svg"
   xmlns="http://www.w3.org/2000/svg"
   xmlns:sodipodi="http://sodipodi.sourceforge.net/DTD/sodipodi-0.dtd"
   xmlns:inkscape="http://www.inkscape.org/namespaces/inkscape"
   width="96"
   height="96"
   viewBox="0 0 25.399999 25.400001"
   version="1.1"
   id="svg8"
   inkscape:version="0.92.4 5da689c313, 2019-01-14"
   sodipodi:docname="listen.svg">
  <defs
     id="defs2">
    <inkscape:path-effect
       effect="simplify"
       id="path-effect821"
       is_visible="true"
       steps="1"
       threshold="0.000408163"
       smooth_angles="360"
       helper_size="0"
       simplify_individual_paths="false"
       simplify_just_coalesce="false"
       simplifyindividualpaths="false"
       simplifyJustCoalesce="false" />
    <inkscape:path-effect
       effect="simplify"
       id="path-effect817"
       is_visible="true"
       steps="1"
       threshold="0.000408163"
       smooth_angles="360"
       helper_size="0"
       simplify_individual_paths="false"
       simplify_just_coalesce="false"
       simplifyindividualpaths="false"
       simplifyJustCoalesce="false" />
  </defs>
  <sodipodi:namedview
     id="base"
     pagecolor="#ffffff"
     bordercolor="#666666"
     borderopacity="1.0"
     inkscape:pageopacity="0.0"
     inkscape:pageshadow="2"
     inkscape:zoom="4"
     inkscape:cx="65.780445"
     inkscape:cy="41.660388"
     inkscape:document-units="px"
     inkscape:current-layer="layer1"
     showgrid="false"
     units="px"
     inkscape:window-width="1920"
     inkscape:window-height="1049"
     inkscape:window-x="0"
     inkscape:window-y="0"
     inkscape:window-maximized="1" />
  <metadata
     id="metadata5">
    <rdf:RDF>
      <cc:Work
         rdf:about="">
        <dc:format>image/svg+xml</dc:format>
        <dc:type
           rdf:resource="http://purl.org/dc/dcmitype/StillImage" />
        <dc:title></dc:title>
      </cc:Work>
    </rdf:RDF>
  </metadata>
  <g
     inkscape:label="Calque 1"
     inkscape:groupmode="layer"
     id="layer1"
     transform="translate(0,-271.59998)">
    <ellipse
       style="opacity:1;fill:#7b7b7b;fill-opacity:1;stroke:#000000;stroke-width:0.5291667;stroke-linecap:round;stroke-linejoin:round;stroke-miterlimit:4;stroke-dasharray:none;stroke-opacity:1"
       id="path877"
       cx="12.820035"
       cy="285.40216"
       rx="8.0623608"
       ry="8.0545559" />
    <path
       style="opacity:1;fill:#dcdcdc;fill-opacity:1;stroke:#000000;stroke-width:0.52916676;stroke-linecap:round;stroke-linejoin:round;stroke-miterlimit:4;stroke-dasharray:none;stroke-opacity:1"
       d="m 12.819832,275.14324 a 10.267638,10.258542 0 0 0 -10.2674723,10.25881 10.267638,10.258542 0 0 0 0.015141,0.30642 h 2.201038 a 8.0623599,8.0545565 0 0 1 -0.011093,-0.30642 8.0623599,8.0545565 0 0 1 8.0623973,-8.05403 8.0623599,8.0545565 0 0 1 8.0624,8.05403 8.0623599,8.0545565 0 0 1 -0.01507,0.30642 h 2.209111 a 10.267638,10.258542 0 0 0 0.01111,-0.30642 10.267638,10.258542 0 0 0 -10.267476,-10.25881 z"
       id="ellipse2825"
       inkscape:connector-curvature="0" />
    <path
       style="opacity:1;fill:#dcdcdc;fill-opacity:1;stroke:#000000;stroke-width:0.52916664;stroke-linecap:round;stroke-linejoin:round;stroke-miterlimit:4;stroke-dasharray:none;stroke-opacity:1"
       d="m 22.229545,281.8347 a 2.7872295,3.6487451 0 0 0 -1.799923,0.86796 v 5.56586 a 2.7872295,3.6487451 0 0 0 1.799923,0.86391 2.7872295,3.6487451 0 0 0 2.7874,-3.64886 2.7872295,3.6487451 0 0 0 -2.7874,-3.64887 z"
       id="ellipse2802"
       inkscape:connector-curvature="0" />
    <path
       style="opacity:1;fill:#dcdcdc;fill-opacity:1;stroke:#000000;stroke-width:0.52916664;stroke-linecap:round;stroke-linejoin:round;stroke-miterlimit:4;stroke-dasharray:none;stroke-opacity:1"
       d="m 3.1704553,281.8347 a 2.7872295,3.6487451 0 0 0 -2.78740035,3.64887 2.7872295,3.6487451 0 0 0 2.78740035,3.64886 2.7872295,3.6487451 0 0 0 1.948145,-1.04448 v -5.21331 a 2.7872295,3.6487451 0 0 0 -1.948145,-1.03994 z"
       id="ellipse2830"
       inkscape:connector-curvature="0" />
  </g>
</svg>
