<?xml version="1.0" encoding="UTF-8" standalone="no"?>
<!-- Created with Inkscape (http://www.inkscape.org/) -->

<svg
   xmlns:dc="http://purl.org/dc/elements/1.1/"
   xmlns:cc="http://creativecommons.org/ns#"
   xmlns:rdf="http://www.w3.org/1999/02/22-rdf-syntax-ns#"
   xmlns:svg="http://www.w3.org/2000/svg"
   xmlns="http://www.w3.org/2000/svg"
   xmlns:sodipodi="http://sodipodi.sourceforge.net/DTD/sodipodi-0.dtd"
   xmlns:inkscape="http://www.inkscape.org/namespaces/inkscape"
   width="96"
   height="96"
   viewBox="0 0 25.399999 25.400001"
   version="1.1"
   id="svg8"
   inkscape:version="0.92.4 5da689c313, 2019-01-14"
   sodipodi:docname="question.svg">
  <defs
     id="defs2">
    <inkscape:path-effect
       effect="simplify"
       id="path-effect821"
       is_visible="true"
       steps="1"
       threshold="0.000408163"
       smooth_angles="360"
       helper_size="0"
       simplify_individual_paths="false"
       simplify_just_coalesce="false"
       simplifyindividualpaths="false"
       simplifyJustCoalesce="false" />
    <inkscape:path-effect
       effect="simplify"
       id="path-effect817"
       is_visible="true"
       steps="1"
       threshold="0.000408163"
       smooth_angles="360"
       helper_size="0"
       simplify_individual_paths="false"
       simplify_just_coalesce="false"
       simplifyindividualpaths="false"
       simplifyJustCoalesce="false" />
  </defs>
  <sodipodi:namedview
     id="base"
     pagecolor="#ffffff"
     bordercolor="#666666"
     borderopacity="1.0"
     inkscape:pageopacity="0.0"
     inkscape:pageshadow="2"
     inkscape:zoom="2.4012168"
     inkscape:cx="-5.5653307"
     inkscape:cy="32.679238"
     inkscape:document-units="px"
     inkscape:current-layer="layer1"
     showgrid="false"
     units="px"
     inkscape:window-width="1920"
     inkscape:window-height="1049"
     inkscape:window-x="0"
     inkscape:window-y="0"
     inkscape:window-maximized="1" />
  <metadata
     id="metadata5">
    <rdf:RDF>
      <cc:Work
         rdf:about="">
        <dc:format>image/svg+xml</dc:format>
        <dc:type
           rdf:resource="http://purl.org/dc/dcmitype/StillImage" />
        <dc:title></dc:title>
      </cc:Work>
    </rdf:RDF>
  </metadata>
  <g
     inkscape:label="Calque 1"
     inkscape:groupmode="layer"
     id="layer1"
     transform="translate(0,-271.59998)">
    <path
       style="opacity:1;fill:#e6e6e6;fill-opacity:1;stroke:#000000;stroke-width:0.52916667;stroke-linecap:round;stroke-linejoin:round;stroke-miterlimit:4;stroke-dasharray:none;stroke-opacity:1"
       d="m 13.528368,272.26144 a 11.210341,11.210341 0 0 0 -11.2106853,11.21017 11.210341,11.210341 0 0 0 0.7291544,3.96307 l -2.38538409,8.90385 8.91780179,-2.38952 a 11.210341,11.210341 0 0 0 3.9491132,0.73329 11.210341,11.210341 0 0 0 11.210168,-11.21069 11.210341,11.210341 0 0 0 -11.210168,-11.21017 z"
       id="path5541"
       inkscape:connector-curvature="0" />
    <path
       style="opacity:1;fill:#464646;fill-opacity:1;stroke:#000000;stroke-width:0.52916664;stroke-linecap:round;stroke-linejoin:round;stroke-miterlimit:4;stroke-dasharray:none;stroke-opacity:1"
       d="m 13.332519,274.33418 v 5.2e-4 a 5.6195465,5.6195465 0 0 0 -5.6198115,5.61929 5.6195465,5.6195465 0 0 0 0.00258,0.0553 h 2.5776205 a 3.0413486,3.0413486 0 0 1 -0.0021,-0.0553 3.0413486,3.0413486 0 0 1 3.041674,-3.04116 3.0413486,3.0413486 0 0 1 3.041158,3.04116 3.0413486,3.0413486 0 0 1 -2.969327,3.03909 H 13.28649 a 3.0413486,3.0413486 0 0 1 -0.0093,-5.1e-4 v 5.1e-4 h -1.786455 l 0.796334,3.56206 h 2.222604 l 0.275435,-1.17977 a 5.6195465,5.6195465 0 0 0 4.16667,-5.42189 5.6195465,5.6195465 0 0 0 -5.619295,-5.6193 z"
       id="rect5517"
       inkscape:connector-curvature="0" />
    <ellipse
       style="opacity:1;fill:#464646;fill-opacity:1;stroke:#000000;stroke-width:0.52916664;stroke-linecap:round;stroke-linejoin:round;stroke-miterlimit:4;stroke-dasharray:none;stroke-opacity:1"
       id="path5519"
       cx="13.415712"
       cy="290.58829"
       rx="1.9562427"
       ry="1.9562429" />
  </g>
</svg>
