<?xml version="1.0" encoding="UTF-8" standalone="no"?>
<!-- Created with Inkscape (http://www.inkscape.org/) -->

<svg
   xmlns:dc="http://purl.org/dc/elements/1.1/"
   xmlns:cc="http://creativecommons.org/ns#"
   xmlns:rdf="http://www.w3.org/1999/02/22-rdf-syntax-ns#"
   xmlns:svg="http://www.w3.org/2000/svg"
   xmlns="http://www.w3.org/2000/svg"
   xmlns:sodipodi="http://sodipodi.sourceforge.net/DTD/sodipodi-0.dtd"
   xmlns:inkscape="http://www.inkscape.org/namespaces/inkscape"
   width="96"
   height="96"
   viewBox="0 0 25.399999 25.400001"
   version="1.1"
   id="svg8"
   inkscape:version="0.92.4 5da689c313, 2019-01-14"
   sodipodi:docname="update.svg">
  <defs
     id="defs2">
    <inkscape:path-effect
       effect="simplify"
       id="path-effect821"
       is_visible="true"
       steps="1"
       threshold="0.000408163"
       smooth_angles="360"
       helper_size="0"
       simplify_individual_paths="false"
       simplify_just_coalesce="false"
       simplifyindividualpaths="false"
       simplifyJustCoalesce="false" />
    <inkscape:path-effect
       effect="simplify"
       id="path-effect817"
       is_visible="true"
       steps="1"
       threshold="0.000408163"
       smooth_angles="360"
       helper_size="0"
       simplify_individual_paths="false"
       simplify_just_coalesce="false"
       simplifyindividualpaths="false"
       simplifyJustCoalesce="false" />
  </defs>
  <sodipodi:namedview
     id="base"
     pagecolor="#ffffff"
     bordercolor="#666666"
     borderopacity="1.0"
     inkscape:pageopacity="0.0"
     inkscape:pageshadow="2"
     inkscape:zoom="3.3958334"
     inkscape:cx="-5.775748"
     inkscape:cy="22.070285"
     inkscape:document-units="px"
     inkscape:current-layer="layer1"
     showgrid="false"
     units="px"
     inkscape:window-width="1920"
     inkscape:window-height="1049"
     inkscape:window-x="0"
     inkscape:window-y="0"
     inkscape:window-maximized="1" />
  <metadata
     id="metadata5">
    <rdf:RDF>
      <cc:Work
         rdf:about="">
        <dc:format>image/svg+xml</dc:format>
        <dc:type
           rdf:resource="http://purl.org/dc/dcmitype/StillImage" />
        <dc:title></dc:title>
      </cc:Work>
    </rdf:RDF>
  </metadata>
  <g
     inkscape:label="Calque 1"
     inkscape:groupmode="layer"
     id="layer1"
     transform="translate(0,-271.59998)">
    <path
       style="opacity:1;fill:#4dc2f3;fill-opacity:1;stroke:#000000;stroke-width:2.06900003;stroke-linecap:round;stroke-linejoin:round;stroke-miterlimit:4;stroke-dasharray:none;stroke-opacity:1"
       d="M 48 1.0351562 A 46.965374 46.965374 0 0 0 1.0351562 48 A 46.965374 46.965374 0 0 0 48 94.964844 A 46.965374 46.965374 0 0 0 94.964844 48 A 46.965374 46.965374 0 0 0 48 1.0351562 z M 48 11.220703 A 36.778399 36.778399 0 0 1 84.779297 48 A 36.778399 36.778399 0 0 1 48 84.779297 A 36.778399 36.778399 0 0 1 11.220703 48 A 36.778399 36.778399 0 0 1 48 11.220703 z "
       transform="matrix(0.26458333,0,0,0.26458333,0,271.59998)"
       id="path4640" />
    <path
       style="opacity:1;fill:#4dc2f3;fill-opacity:1;stroke:#000000;stroke-width:0.52916664;stroke-linecap:round;stroke-linejoin:round;stroke-miterlimit:4;stroke-dasharray:none;stroke-opacity:1"
       d="m 20.296692,284.30735 c -6e-5,-3.18419 -2.58155,-5.76551 -4.32945,-5.77381 -0.0714,0.002 0.76706,-0.003 -1.01234,-0.006 v -1.05833 l -3.501594,2.26342 3.501594,2.26912 v -1.05834 l 0.34571,0.005 c 1.08091,0.008 2.58066,1.50823 2.58073,3.35845 -7e-5,1.85023 -1.49982,3.35015 -2.58073,3.35019 -0.10406,-3.2e-4 -0.143136,0 -0.143136,0 v 2.41535 h 0.809766 c 1.7479,-3e-5 4.32939,-2.58134 4.32945,-5.76554 z"
       id="path2161"
       inkscape:connector-curvature="0"
       sodipodi:nodetypes="ccccccccccccccc" />
    <path
       id="path2216"
       d="m 5.1033062,284.29261 c 6e-5,3.18419 2.5815514,5.76551 4.3294516,5.77381 0.071364,-0.002 -0.7670555,0.003 1.0123412,0.006 v 1.05833 l 3.501594,-2.26342 -3.501594,-2.26912 v 1.05834 l -0.345716,-0.005 c -1.0809093,-0.008 -2.5806504,-1.50823 -2.5807202,-3.35845 6.98e-5,-1.85023 1.4998109,-3.35015 2.5807202,-3.35019 0.10406,3.2e-4 0.143143,0 0.143143,0 v -2.41535 H 9.4327578 c -1.7479002,3e-5 -4.3293916,2.58134 -4.3294516,5.76554 z"
       style="opacity:1;fill:#4dc2f3;fill-opacity:1;stroke:#000000;stroke-width:0.52916664;stroke-linecap:round;stroke-linejoin:round;stroke-miterlimit:4;stroke-dasharray:none;stroke-opacity:1"
       inkscape:connector-curvature="0"
       sodipodi:nodetypes="ccccccccccccccc" />
  </g>
</svg>
